<svg width="198" height="79" viewBox="0 0 198 79" fill="none" xmlns="http://www.w3.org/2000/svg">
<path d="M197 72.9273H6.38184V26.3438L197 26.3615V72.9273Z" stroke="white" stroke-width="1.18345" stroke-linejoin="round"/>
<path d="M112.392 26.3465L6.38184 26.3436V1H112.392V26.3465Z" stroke="white" stroke-width="1.18345" stroke-linejoin="round"/>
<path d="M6.37289 72.5841L1 78.0723L1.00003 31.7876L6.38177 26.3438L6.37289 72.5841Z" stroke="white" stroke-width="1.18345" stroke-linejoin="round"/>
<path d="M6.38174 26.3436L1 31.7875V6.49419L6.37286 1.04736L6.38174 26.3436Z" stroke="white" stroke-width="1.18345" stroke-linecap="round" stroke-linejoin="round"/>
<path d="M32.1189 53.4743V56.5809H20.7104V42.3706H31.8556V45.4772H24.6898V47.8736H31.0035V50.8767H24.6898V53.4743H32.1189Z" fill="white"/>
<path d="M40.4614 56.4358C39.3785 56.1517 38.4998 55.773 37.8223 55.2996L39.1418 52.3351C39.7779 52.7552 40.5146 53.0925 41.3549 53.3499C42.1922 53.6073 43.0206 53.7345 43.8312 53.7345C45.3727 53.7345 46.1449 53.3499 46.1449 52.5777C46.1449 52.1724 45.9259 51.8706 45.4851 51.6753C45.0443 51.4801 44.3372 51.273 43.3638 51.057C42.2957 50.8262 41.4022 50.5806 40.6833 50.3173C39.9673 50.054 39.3489 49.6309 38.8371 49.0481C38.3223 48.4652 38.0649 47.6812 38.0649 46.693C38.0649 45.8261 38.3016 45.0451 38.7749 44.3498C39.2483 43.6545 39.9554 43.1012 40.8963 42.6959C41.8371 42.2906 42.991 42.0864 44.3579 42.0864C45.2928 42.0864 46.2129 42.19 47.1183 42.4C48.0236 42.6101 48.8224 42.9178 49.5148 43.3231L48.2751 46.3084C46.923 45.5776 45.6094 45.2107 44.3372 45.2107C43.5383 45.2107 42.9555 45.3291 42.5916 45.5658C42.2277 45.8025 42.0442 46.1102 42.0442 46.4889C42.0442 46.8676 42.2602 47.1516 42.6951 47.3409C43.1271 47.5303 43.8253 47.7256 44.7869 47.9297C45.8697 48.1605 46.7662 48.406 47.4763 48.6694C48.1863 48.9327 48.8017 49.3528 49.3224 49.9268C49.8432 50.5008 50.1035 51.2848 50.1035 52.27C50.1035 53.1221 49.8668 53.8943 49.3935 54.5837C48.9201 55.273 48.21 55.8263 47.2632 56.2375C46.3165 56.6488 45.1656 56.8559 43.8135 56.8559C42.6626 56.8559 41.5472 56.7139 40.4643 56.4298L40.4614 56.4358Z" fill="white"/>
<path d="M59.4913 55.918C58.3079 55.2878 57.3759 54.4121 56.7013 53.2907C56.0238 52.1665 55.6865 50.8943 55.6865 49.4741C55.6865 48.054 56.0238 46.7818 56.7013 45.6575C57.3789 44.5332 58.3079 43.6575 59.4913 43.0302C60.6748 42.4 62.0121 42.0864 63.5003 42.0864C64.7991 42.0864 65.9707 42.3172 67.0121 42.7758C68.0536 43.2373 68.9205 43.9001 69.6098 44.764L67.0536 47.0776C66.1334 45.9681 65.018 45.4119 63.7044 45.4119C62.9322 45.4119 62.2458 45.5806 61.6452 45.9208C61.0416 46.2581 60.5771 46.7374 60.2458 47.3528C59.9144 47.9682 59.7487 48.6753 59.7487 49.4741C59.7487 50.2729 59.9144 50.9801 60.2458 51.5954C60.5771 52.2108 61.0446 52.6872 61.6452 53.0274C62.2458 53.3647 62.9352 53.5333 63.7044 53.5333C65.018 53.5333 66.1334 52.9801 67.0536 51.8676L69.6098 54.1813C68.9205 55.0482 68.0536 55.7109 67.0121 56.1695C65.9707 56.6281 64.7991 56.8588 63.5003 56.8588C62.0121 56.8588 60.6748 56.5452 59.4913 55.915V55.918Z" fill="white"/>
<path d="M82.0715 52.8027H79.8791V56.578H75.8613V42.3677H82.3585C83.6425 42.3677 84.7609 42.5807 85.7076 43.0067C86.6544 43.4328 87.3852 44.0423 87.9 44.8322C88.4148 45.6251 88.6722 46.5541 88.6722 47.6222C88.6722 48.6903 88.4325 49.5483 87.9503 50.3116C87.471 51.0749 86.7846 51.6755 85.8911 52.1075L88.9562 56.572H84.6544L82.0774 52.7968L82.0715 52.8027ZM83.9798 46.0837C83.5597 45.7198 82.9384 45.5364 82.1129 45.5364H79.8791V49.6962H82.1129C82.9384 49.6962 83.5597 49.5157 83.9798 49.1577C84.3999 48.7997 84.61 48.2879 84.61 47.6251C84.61 46.9624 84.3999 46.4476 83.9798 46.0837Z" fill="white"/>
<path d="M95.3472 42.3706H99.365V56.5809H95.3472V42.3706Z" fill="white"/>
<path d="M119.525 50.5009C119.984 51.1045 120.215 51.8293 120.215 52.6844C120.215 53.93 119.715 54.8915 118.712 55.5661C117.709 56.2436 116.262 56.5809 114.368 56.5809H106.697V42.3706H113.963C115.777 42.3706 117.156 42.7049 118.105 43.3765C119.052 44.0452 119.525 44.9505 119.525 46.0866C119.525 46.7642 119.36 47.3677 119.028 47.9032C118.697 48.4387 118.227 48.8618 117.617 49.1725C118.428 49.4565 119.064 49.9003 119.525 50.5009ZM110.676 45.273V48.0127H113.437C114.789 48.0127 115.466 47.5541 115.466 46.631C115.466 45.7079 114.789 45.2701 113.437 45.2701H110.676V45.273ZM116.156 52.2347C116.156 51.2731 115.451 50.7938 114.043 50.7938H110.673V53.6755H114.043C115.451 53.6755 116.156 53.1962 116.156 52.2347Z" fill="white"/>
<path d="M136.292 53.8176H130.283L129.168 56.578H125.067L131.339 42.3677H135.298L141.591 56.578H137.41L136.295 53.8176H136.292ZM135.114 50.853L133.289 46.3056L131.463 50.853H135.117H135.114Z" fill="white"/>
<path d="M160.708 42.3701V56.5804H157.401L151.128 49.0093V56.5804H147.19V42.3701H150.498L156.77 49.9412V42.3701H160.708Z" fill="white"/>
<path d="M171.132 55.9091C169.934 55.273 168.993 54.3943 168.31 53.27C167.626 52.1458 167.286 50.8824 167.286 49.4741C167.286 48.0658 167.626 46.8025 168.31 45.6782C168.993 44.5539 169.934 43.6752 171.132 43.0391C172.331 42.403 173.68 42.0864 175.183 42.0864C176.686 42.0864 178.035 42.406 179.233 43.0391C180.431 43.6752 181.372 44.5539 182.056 45.6782C182.739 46.8025 183.079 48.0658 183.079 49.4741C183.079 50.8824 182.736 52.1458 182.056 53.27C181.372 54.3943 180.431 55.273 179.233 55.9091C178.035 56.5452 176.686 56.8618 175.183 56.8618C173.68 56.8618 172.331 56.5452 171.132 55.9091ZM177.129 53.0274C177.712 52.6901 178.171 52.2108 178.511 51.5954C178.848 50.9801 179.02 50.2729 179.02 49.4741C179.02 48.6753 178.851 47.9682 178.511 47.3528C178.174 46.7374 177.712 46.261 177.129 45.9208C176.547 45.5835 175.899 45.4119 175.18 45.4119C174.461 45.4119 173.813 45.5806 173.23 45.9208C172.647 46.2581 172.189 46.7374 171.848 47.3528C171.511 47.9682 171.342 48.6753 171.342 49.4741C171.342 50.2729 171.511 50.9801 171.848 51.5954C172.186 52.2108 172.647 52.6872 173.23 53.0274C173.813 53.3647 174.461 53.5333 175.18 53.5333C175.899 53.5333 176.547 53.3647 177.129 53.0274Z" fill="white"/>
<path d="M27.7732 16.1391V18.0622H20.7051V9.26025H27.6105V11.1834H23.1696V12.6686H27.0809V14.5296H23.1696V16.1391H27.7732Z" fill="white"/>
<path d="M32.9408 17.9766C32.2692 17.7991 31.7248 17.5654 31.3047 17.2725L32.1213 15.4351C32.5148 15.6955 32.9734 15.9056 33.4911 16.0653C34.0118 16.2251 34.5237 16.305 35.0266 16.305C35.9823 16.305 36.4616 16.0653 36.4616 15.589C36.4616 15.3375 36.3255 15.1511 36.0533 15.0298C35.7811 14.9085 35.3432 14.7813 34.7397 14.6452C34.0769 14.5032 33.5237 14.3493 33.0799 14.1866C32.6361 14.0239 32.2544 13.7606 31.9349 13.3996C31.6153 13.0387 31.4556 12.5534 31.4556 11.941C31.4556 11.4055 31.6035 10.9203 31.8964 10.4883C32.1893 10.0564 32.6272 9.71612 33.21 9.46464C33.7929 9.21316 34.5089 9.08594 35.355 9.08594C35.9349 9.08594 36.503 9.15103 37.0651 9.28121C37.6273 9.41139 38.1214 9.60074 38.5504 9.85222L37.7841 11.7014C36.9468 11.2487 36.1332 11.0209 35.3432 11.0209C34.8491 11.0209 34.4882 11.0948 34.2604 11.2398C34.0325 11.3877 33.9201 11.5771 33.9201 11.8108C33.9201 12.0446 34.0532 12.2221 34.3225 12.3404C34.5917 12.4588 35.0237 12.5801 35.6184 12.7043C36.29 12.8464 36.8462 13.0002 37.2841 13.1629C37.7249 13.3256 38.1066 13.586 38.4291 13.944C38.7515 14.302 38.9143 14.7842 38.9143 15.3967C38.9143 15.9263 38.7663 16.4026 38.4734 16.8316C38.1805 17.2606 37.7397 17.6009 37.1539 17.8553C36.5681 18.1097 35.8551 18.2399 35.0148 18.2399C34.3018 18.2399 33.6095 18.1512 32.9408 17.9766Z" fill="white"/>
<path d="M44.7345 17.6571C44.0008 17.2666 43.4238 16.7251 43.0037 16.0269C42.5836 15.3316 42.3735 14.5417 42.3735 13.663C42.3735 12.7842 42.5836 11.9943 43.0037 11.299C43.4238 10.6037 44.0008 10.0594 44.7345 9.66882C45.4683 9.27828 46.2967 9.08301 47.2198 9.08301C48.0245 9.08301 48.7494 9.22502 49.3973 9.51201C50.0423 9.79604 50.5808 10.2073 51.0068 10.7458L49.421 12.1807C48.85 11.4943 48.1576 11.1481 47.347 11.1481C46.8677 11.1481 46.4446 11.2517 46.0689 11.4617C45.6961 11.6718 45.4061 11.9677 45.202 12.3493C44.9949 12.731 44.8943 13.1689 44.8943 13.663C44.8943 14.157 44.9978 14.5949 45.202 14.9766C45.4061 15.3583 45.6961 15.6541 46.0689 15.8642C46.4416 16.0742 46.8677 16.1778 47.347 16.1778C48.1606 16.1778 48.8529 15.8346 49.421 15.1452L51.0068 16.5802C50.5778 17.1157 50.0423 17.5269 49.3973 17.8139C48.7523 18.0979 48.0275 18.2429 47.2198 18.2429C46.2967 18.2429 45.4683 18.0476 44.7345 17.6571Z" fill="white"/>
<path d="M55.7909 17.1716C55.0661 16.4586 54.7021 15.4497 54.7021 14.139V9.26025H57.1933V14.0651C57.1933 15.4734 57.7495 16.1775 58.8649 16.1775C59.9803 16.1775 60.5247 15.4734 60.5247 14.0651V9.26025H62.9774V14.142C62.9774 15.4497 62.6135 16.4615 61.8887 17.1746C61.1638 17.8876 60.146 18.2426 58.8383 18.2426C57.5306 18.2426 56.5128 17.8876 55.788 17.1746L55.7909 17.1716Z" fill="white"/>
<path d="M74.5013 16.1391V18.0622H67.4331V9.26025H74.3385V11.1834H69.8976V12.6686H73.8089V14.5296H69.8976V16.1391H74.5013Z" fill="white"/>
<path d="M78.6553 9.26025H81.1464V16.0917H85.3477V18.0651H78.6553V9.26025Z" fill="white"/>
<path d="M95.0924 16.355H91.3705L90.6782 18.0651H88.1367L92.0244 9.26025H94.4771L98.3765 18.0651H95.7848L95.0924 16.355ZM94.3617 14.5177L93.2285 11.7011L92.0954 14.5177H94.3587H94.3617Z" fill="white"/>
<path d="M196.985 72.8946L191.683 78.2645H1.06787L6.02949 72.8945L196.985 72.8946Z" stroke="white" stroke-width="1.18345" stroke-linecap="round" stroke-linejoin="round"/>
</svg>
