<?xml version="1.0" standalone="no"?>
<!DOCTYPE svg PUBLIC "-//W3C//DTD SVG 1.1//EN" "http://www.w3.org/Graphics/SVG/1.1/DTD/svg11.dtd">
<svg xmlns="http://www.w3.org/2000/svg" width="5234" height="6602" viewBox="0 0 5234 6602" fill="none">
<path d="M3852.18 4869.78L3851.26 4873.51L3847.54 4888.42L3845.69 4895.87L3843.49 4903.23C3776.51 5136.68 3571.51 5305 3330.71 5330.45C3203.46 5343.8 3061.44 5361.89 2934.14 5369.67C2659.79 5387.61 2383.35 5379.04 2110.55 5344.61C2028.45 5334.52 1942.39 5325.32 1860.43 5314.79C1846.05 5312.53 1831.54 5310.03 1817.24 5306.91C1808.88 5305.18 1799.43 5302.57 1791.09 5300.61C1786.21 5299.18 1773.79 5295.67 1768.94 5294.24C1763.58 5292.47 1756.11 5290.06 1750.71 5288.22C1684.12 5265.45 1621.68 5230.45 1567 5186.18C1500.69 5131.96 1445.76 5063.56 1408.3 4986.5C1404.53 4978.68 1398.69 4966.48 1395.59 4958.62C1393.87 4954.86 1391.12 4948.12 1389.77 4944.45C1386.59 4936.34 1381.81 4923.76 1379.3 4915.66C1377.94 4911.75 1375.6 4904.88 1374.61 4901.08C1370.97 4889.81 1367.48 4875.49 1364.56 4864.14C1363.07 4857.94 1360.75 4846.05 1359.34 4839.68C1322.81 4652.18 1238.63 4220.19 1203.43 4038.5C1153.44 3776.59 1097.15 3515.75 1055.65 3252.51C1041.62 3164.82 1029.6 3077.63 1018.05 2989.33C1006.9 2904.25 987.14 2756.33 967.066 2606.03C969.022 2549.78 984.953 2291.91 1113.15 2191.48C1119.03 2193 1124.99 2194.36 1131.01 2195.53C1264.92 2222.92 1398.69 2166.18 1485.3 2081.21C1496.52 2070.31 1507.06 2058.93 1516.86 2047.11C1548.76 2080.92 1589.35 2106.49 1634.98 2117.03C1697.27 2132.06 1759.54 2119.64 1814.02 2090.6C1814.2 2090.5 1814.39 2090.39 1814.57 2090.29C1848.66 2127.32 1897.21 2156.15 1953.4 2166.61C2039.06 2183.27 2124.64 2158.08 2190.05 2113.75C2191.57 2114.69 2193.1 2115.61 2194.63 2116.51C2217.42 2129.99 2242.09 2140.18 2268.15 2146.21C2381.96 2173.72 2495.67 2123.17 2575.18 2042.4C2631.7 2085.39 2708.44 2118.39 2796.22 2130.96C2945.59 2153.33 3094.86 2117.62 3206.5 2056.42C3229.19 2116.08 3267.27 2168.41 3319.09 2201.65C3431.63 2275.58 3577.55 2250.04 3691.25 2176.41C3703.14 2168.8 3714.73 2160.66 3726.02 2152.06C3808.96 2196.14 3914.84 2196.26 4006.67 2167.51C4010.8 2166.24 4014.91 2164.88 4018.99 2163.51C4022.98 2164.51 4027.16 2165.57 4031.53 2166.65C4245.33 2219.58 4250.85 2679.18 4250.85 2679.18C4238.11 2789.3 4215.28 3000.74 4202.04 3110.35C4187.19 3230.84 4169.72 3351.39 4147.94 3470.8C4101.34 3721.04 4035.68 4003.11 3983.64 4253.65C3969.83 4321.03 3862.83 4813.7 3852.22 4869.76L3852.18 4869.78Z" fill="#FFCA29"/>
<path d="M3310.2 5177.1C3293.67 5179.52 3238.91 5185.62 3222.93 5187.67C3185.2 5192.56 3144.31 5196.04 3106.59 5200.26C3091.07 5202.03 3063.76 5203.96 3048.37 5205.38C3015.73 5208.55 2964.83 5212.14 2931.94 5214.22C2915.87 5215.53 2889.81 5216.9 2873.7 5217.59C2798.77 5221.8 2715.54 5223.79 2640.7 5224.05C2456.77 5224.04 2271.41 5212.05 2089.45 5185.11C2003.12 5172.13 1916.56 5155.81 1831.75 5135.06C1774.98 5121.07 1718.04 5105.48 1662.98 5085.68C1705.6 5109.91 1751.52 5129.51 1797.2 5147.22C1861.46 5171.95 1928.06 5192.59 1994.76 5209.66C2181.21 5257.56 2374.55 5279.86 2566.84 5283.92C2586.81 5283.98 2635.78 5284.62 2655.75 5284.16C2677.11 5283.74 2708.34 5282.93 2729.8 5282.42C2786.53 5280.09 2850.63 5275.77 2907.04 5270.61C2940.95 5266.91 2990.83 5261.77 3024.57 5256.86C3051.41 5252.9 3085.73 5248.37 3112.28 5243.76C3140.61 5238.87 3171.01 5233.46 3199.53 5228.26C3226.74 5222.73 3273.18 5212.84 3300.62 5206.86C3343.56 5196.35 3386.72 5186.25 3429.24 5174.05C3456.3 5166.16 3487.42 5157.32 3514.01 5148.92C3481.02 5153.14 3444.87 5158.4 3412.02 5163.37C3378.1 5168.17 3344.09 5172.21 3310.2 5177.08V5177.1Z" fill="black"/>
<path d="M5224.61 4113.39C5212.44 4071.41 5189.85 4031.64 5165.19 3991.44C5164.69 3990.62 5164.42 3989.67 5164.43 3988.69C5165.08 3882.94 5106.03 3801.18 5077.77 3768.15C5076.71 3766.91 5076.3 3765.28 5076.65 3763.71C5079.83 3749.26 5082.53 3728.55 5080.42 3703.87C5076.82 3661.6 5057.86 3599.02 4988.05 3540.9C4955.52 3513.83 4912.69 3499.1 4860.74 3497.13C4821.66 3495.64 4777.17 3501.39 4728.47 3514.19C4671.26 3529.23 4622.06 3550.34 4597.01 3561.99C4555.2 3540.7 4511.73 3536.26 4471.7 3549.76C4420.96 3566.87 4383.29 3610.25 4365.61 3671.89C4349.08 3729.53 4352.08 3797.18 4374.07 3862.37C4396.06 3927.55 4434.64 3983.19 4482.71 4019.04C4485.24 4020.92 4487.77 4022.74 4490.32 4024.49C4476.54 4035.65 4459.6 4051.37 4443.53 4071.67C4396.44 4131.12 4378.32 4201.88 4391.12 4276.32C4391.82 4280.39 4392.61 4284.44 4393.5 4288.48C4237.46 4315.35 4125.56 4317.82 4072.83 4316.92C4097.52 4200.88 4120.5 4092.9 4137.37 4013.47C4195.46 3741.14 4258.2 3465.6 4291.9 3189.02C4295.73 3160.33 4299.77 3125.63 4303.36 3097.21C4329.36 2861.4 4374.65 2459.61 4403.13 2201.34C4523.44 2143.82 4622.96 2027.42 4630.5 1905.99C4631.04 1896.75 4631.07 1887.07 4630.32 1877.83L4629.56 1867.04C4629.19 1863.42 4628.6 1859.78 4628.11 1856.18C4627.69 1853.13 4627.01 1848.29 4626.4 1845.35C4625.12 1839.18 4623.19 1829.8 4621.27 1823.88C4618.31 1813.21 4614.48 1802.71 4609.8 1792.67C4608.42 1789.8 4606.51 1785.39 4605 1782.69L4599.54 1773.04C4576.22 1733.35 4545.77 1702.42 4508.86 1684.78C4559.38 1534.74 4564.8 1359.84 4461.15 1234.41C4440.57 1209.92 4416.2 1188.87 4389.59 1171.23C4326.37 1128.4 4252.9 1099.1 4176.32 1092.84C4073.24 1083.44 3971.36 1117.06 3887.08 1175.53C3866.85 1160.81 3844.01 1149.83 3819.4 1144.14C3792.31 1137.61 3765.22 1137.36 3739.09 1142.1C3724.16 1110.33 3696.5 1063.45 3648.37 1016.22C3600.4 969.154 3541.64 930.924 3473.69 902.589C3390.2 867.769 3292.54 847.927 3183.44 843.591C3067.53 838.984 2964.52 856.176 2877.26 894.663C2824.84 917.786 2778.1 948.54 2737.74 986.384C2605.48 937.898 2497.32 880.187 2416.27 814.857C2352.58 763.528 2305.59 707.528 2276.59 648.427C2256.18 606.851 2245 564.748 2243.34 523.276C2242.15 493.641 2246.54 474.906 2246.98 473.091C2252.43 454.395 2242.77 434.887 2224.72 427.566C2206.6 420.231 2185.79 428.132 2176.73 445.452L2043.06 701.056C2026.81 688.947 2009.49 677.315 1990.87 666.03C1957.29 645.043 1919.59 612.564 1888.82 580.46C1845.88 535.68 1826 469.476 1826.15 408.238C1826.95 299.339 1859.43 193.232 1912.68 99.658L1946.05 41.303C1959.49 17.8066 1934.5 -8.93245 1910.14 2.89296C1878.67 18.1798 1849.92 32.1284 1849.92 32.1284C1482.56 208.236 1393.6 521.796 1515.26 866.084C1439.8 853.113 1346.46 869.314 1261.38 920.025C1181.2 967.082 1118.58 1035.23 1075.43 1108.83C1057.51 1139.36 1042.95 1170.82 1031.87 1202.14C1024.7 1222.29 1018.99 1242.41 1014.75 1262.14C1011.5 1276.99 1008.99 1291.71 1007.28 1306.22C964.789 1307.29 922.544 1312.05 881.677 1320.61C688.301 1361.62 555.339 1491.56 509.375 1684.12C485.429 1783.11 486.523 1888.86 517.495 1986.29C555.545 2107.82 646.005 2212.39 774.45 2238.64C786.211 2241.07 797.998 2242.82 809.772 2243.96C851.849 2550.12 904.761 2976.22 949.862 3269.33C991.914 3534.02 1048.71 3795.76 1099.24 4058.66C1111.53 4122.07 1129.7 4214.94 1149.72 4317.05C1093.18 4317.38 986.034 4313.53 840.487 4288.48C841.375 4284.44 842.173 4280.39 842.868 4276.32C855.671 4201.88 837.553 4131.12 790.457 4071.67C774.373 4051.38 757.452 4035.65 743.671 4024.49C746.218 4022.74 748.753 4020.92 751.275 4019.04C799.349 3983.18 837.939 3927.54 859.917 3862.37C881.895 3797.19 884.906 3729.55 868.384 3671.89C850.717 3610.25 813.04 3566.87 762.29 3549.76C722.259 3536.25 678.792 3540.69 636.984 3561.99C611.931 3550.34 562.725 3529.23 505.515 3514.19C456.824 3501.39 412.327 3495.64 373.248 3497.13C321.301 3499.1 278.478 3513.83 245.935 3540.9C176.115 3599 157.174 3661.59 153.571 3703.87C151.473 3728.54 154.163 3749.25 157.341 3763.71C157.689 3765.29 157.277 3766.93 156.222 3768.15C127.964 3801.18 68.9271 3882.94 69.5577 3988.69C69.5577 3989.65 69.3003 3990.62 68.7985 3991.44C44.144 4031.63 21.5483 4071.41 9.37545 4113.39C-6.14299 4166.85 -2.42423 4216.55 20.7376 4265.28C76.5706 4382.76 182.562 4446.83 385.846 4485.62C386.36 4485.73 386.862 4485.9 387.325 4486.15C402.419 4494.35 444.857 4515.05 501.076 4522.86C514.304 4524.7 528.844 4525.88 544.363 4525.88C591.767 4525.88 648.385 4514.9 705.132 4478.19C847.101 4526.69 986.78 4541.95 1080.25 4546.13C1104.67 4547.22 1127.19 4547.63 1147.39 4547.63C1165.06 4547.63 1180.94 4547.31 1194.81 4546.84C1218.64 4668.21 1241.03 4782.25 1255.71 4857.6C1257.54 4866.15 1260.23 4879.72 1262.28 4888.28C1264.57 4896.89 1266.6 4905.97 1269.03 4914.54L1274.19 4931.88C1275.08 4934.76 1275.88 4937.67 1276.83 4940.52C1279.8 4948.95 1282.54 4957.78 1285.65 4966.17L1292.16 4983.04C1293.26 4985.84 1294.31 4988.68 1295.46 4991.45C1363.16 5155.85 1492.57 5288.56 1653.67 5361.73V5525.17C1653.67 5533.39 1653.76 5541.68 1654.12 5549.98C1618.96 5553.46 1579.94 5573.34 1557.55 5597.18C1529.11 5627.52 1523.49 5673.31 1533.39 5712.37C1539.69 5736.24 1552.12 5755.32 1568.41 5770.03C1568.22 5770.45 1568.01 5770.88 1567.83 5771.3L1526.34 5870.24C1525.07 5873.26 1524.34 5876.37 1524.08 5879.45C1485.29 5887.16 1447.29 5898.99 1410.94 5914.88C1396.14 5921.16 1378.28 5930.15 1364.25 5937.94C1355.31 5942.7 1346.08 5948.57 1337.31 5953.8C1328.56 5959.36 1319.87 5965.33 1311.33 5971.2L1294.61 5983.63C1289.57 5987.16 1283.26 5992.7 1278.35 5996.61C1229.73 6036.65 1186.27 6084.13 1155.78 6139.59C1084.87 6266.35 1106.53 6413.76 1236.76 6490.48C1311.19 6534.27 1400.18 6543.84 1484.85 6537.95C1538.83 6534.92 1592.91 6529.71 1646.31 6520.84C1842.46 6490.62 2005.28 6406.64 2162 6287.76C2168.78 6282.8 2176.22 6276.49 2181.74 6269.92C2202.6 6246.29 2212.13 6213.4 2207.6 6182.24C2199.62 6131.54 2188.7 6080.87 2177.17 6030.92C2152.92 5926.85 2125.71 5824.19 2096.76 5721.37C2095.56 5717.14 2093.5 5713.37 2090.85 5710.19C2094.61 5702.82 2097.69 5694.84 2099.95 5686.25C2109.83 5647.19 2101.65 5603.61 2075.79 5571.05C2040.81 5527.03 1958.54 5510.86 1917.06 5520.18V5426.56C1977.53 5433.7 2039.36 5440.5 2097.75 5447.58C2399.34 5485.28 2705.35 5492.01 3008.28 5467.17C3089.19 5460.38 3182.3 5449.83 3269.1 5440.1V5549.18C3269.1 5563.68 3269.33 5578.38 3270.47 5592.98C3236.94 5597.97 3201 5616.95 3179.87 5639.46C3151.44 5669.8 3145.81 5715.6 3155.71 5754.65C3159.66 5769.6 3166.01 5782.66 3174.21 5793.96C3173 5796.1 3171.97 5798.48 3171.15 5801.12C3145.8 5895.44 3122.29 5989.83 3100.92 6085.14C3085.08 6157.24 3069.91 6229.15 3060.37 6302.57C3057.6 6324.66 3055.28 6347.43 3055.17 6369.71L3055.24 6379.94C3055.26 6385.4 3056.91 6390.89 3060.29 6395.68C3068.41 6407.94 3077.29 6418.21 3086.54 6427.8C3131.5 6473.62 3186.73 6507.02 3244.31 6533.78C3318.12 6567.57 3397.9 6588.52 3478.53 6597.14C3483.16 6597.69 3492.49 6598.58 3497.15 6598.87C3502.58 6599.26 3510.46 6600.03 3515.81 6600.24C3533.68 6601.19 3554.05 6601.87 3571.86 6601.58C3608.46 6601.19 3645.97 6598.29 3682.32 6594.63C3858.53 6577.09 4060.83 6526.03 4117.36 6334.69C4124.05 6312.71 4128.38 6290.47 4131.28 6267.8C4149.67 6124.34 4052.46 6009.97 3935.84 5941.37C3883.95 5910.92 3828.33 5885.85 3768.9 5874.33C3757.17 5872.08 3745.43 5870.24 3733.71 5868.77L3690.62 5762.96C3697.19 5752.84 3702.35 5741.4 3705.74 5728.57C3715.62 5689.51 3707.44 5645.93 3681.57 5613.38C3649.15 5572.56 3576.03 5555.68 3532.5 5560.86V5383.91C3621.57 5347.61 3703.29 5293.24 3770.42 5224.14C3816.6 5177.02 3855.88 5122.86 3886.99 5064.71C3915.03 5011.66 3936.21 4954.81 3949.88 4896.34C3968.93 4805.73 3995.77 4679.25 4024.05 4546.23C4041.03 4547.03 4062.1 4547.65 4086.57 4547.65C4106.77 4547.65 4129.29 4547.22 4153.71 4546.14C4247.18 4541.97 4386.86 4526.7 4528.83 4478.2C4585.57 4514.91 4642.2 4525.89 4689.6 4525.89C4705.12 4525.89 4719.67 4524.7 4732.89 4522.88C4789.12 4515.08 4831.56 4494.36 4846.64 4486.17C4847.1 4485.91 4847.6 4485.74 4848.12 4485.64C5051.4 4446.83 5157.39 4382.77 5213.23 4265.29C5236.39 4216.56 5240.11 4166.88 5224.59 4113.4L5224.61 4113.39ZM4431.39 3843.05C4413.28 3789.39 4410.58 3734.54 4423.75 3688.57C4435.79 3646.6 4459.68 3617.66 4491.04 3607.08C4499.82 3604.12 4508.99 3602.66 4518.42 3602.66C4542.72 3602.66 4568.73 3612.36 4593.94 3631.16C4632.26 3659.75 4663.34 3705.05 4681.44 3758.69C4699.55 3812.35 4702.25 3867.2 4689.07 3913.17C4677.04 3955.14 4653.15 3984.08 4621.79 3994.66C4590.43 4005.24 4553.89 3996.69 4518.89 3970.58C4480.57 3941.99 4449.49 3896.7 4431.39 3843.05ZM705.814 2128.02C655.308 2084.74 622.894 2023.7 605.6 1960.01C574.846 1844.66 586.942 1718.14 634.977 1609.18C665.821 1539.75 716.919 1480 780.652 1438.41C847.796 1394.74 924.77 1367.9 1004.54 1352.38L1034.12 1347.16C1097.58 1337.04 1162.23 1333.57 1224.63 1334.04C1171.75 1318.54 1115.87 1309.45 1059.59 1306.83C1086.07 1264.34 1112.96 1221.14 1141.24 1181.24C1143.24 1178.43 1145.22 1175.64 1147.24 1172.86C1156.72 1159.67 1166.57 1146.55 1176.84 1133.64C1192.89 1113.47 1210.05 1093.84 1228.72 1075.36C1323.97 978.097 1433.68 949.659 1542.27 935.145C1564.37 986.628 1590.97 1038.64 1621.89 1090.82L1626.29 1097.07C1632.66 1104.19 1629.98 1096.49 1628.89 1087.86C1622.3 1035.49 1611.82 982.125 1600.84 928.299L1593.65 893.157C1560 728.592 1528.56 560.952 1595.42 405.832C1630.31 325.036 1686.54 257.725 1754.34 203.874C1693.9 354.348 1675.72 515.362 1803.8 641.607C1834.58 671.949 1878.29 705.289 1910.14 723.986C1982.3 766.359 2009.27 784.194 2051.77 813.777C2122.3 862.648 2168.73 906.488 2239.93 963.66C2239.98 963.698 2240.02 963.737 2240.07 963.775C2241.75 965.165 2244.15 963.466 2243.36 961.446C2236.95 944.963 2229.01 929.045 2220.61 913.463C2185.2 849.497 2148.27 797.087 2102.25 751.729L2179.38 604.239C2185.69 628.25 2194.37 652.158 2205.31 675.397C2238.36 745.591 2291.86 811.242 2364.33 870.497C2446.45 937.654 2553.61 996.948 2683.17 1046.98C2647.38 1094.07 2625.57 1140.38 2612.68 1175.05C2592.63 1160.59 2570.03 1149.79 2545.7 1144.17C2494.29 1131.76 2442.91 1142.01 2397.95 1165.98C2379.31 1175.91 2361.77 1188.2 2345.78 1202.24C2335.48 1211.26 2325.82 1221.01 2316.93 1231.29C2305 1244.99 2294.23 1259.66 2284.86 1275.2C2279.69 1283.81 2274.95 1292.58 2270.82 1301.72C2269.84 1303.88 2272.07 1306.11 2274.23 1305.16C2277.86 1303.56 2281.39 1301.91 2284.91 1300.27C2322.6 1282.66 2362.12 1261.66 2400.43 1246.61C2402.28 1245.87 2404.14 1245.15 2406 1244.45C2414.81 1241.07 2423.75 1237.92 2432.8 1235.16C2446.94 1230.81 2461.37 1227.41 2476.02 1225.52C2570.06 1211.23 2635.81 1275.78 2697.95 1337.13L2700.54 1339.7C2702.02 1341.16 2704.54 1340.04 2704.42 1337.97C2703.18 1315.33 2696.88 1293.3 2688.4 1272.28C2683.87 1261.07 2678.37 1250.15 2671.99 1239.68C2677.31 1217.76 2698.47 1144.95 2757.93 1075.08C2798.9 1026.93 2850.09 989.279 2910.06 963.196C2986.19 930.088 3077.15 915.393 3180.39 919.485C3279.02 923.396 3366.79 940.858 3441.24 971.367C3499.96 995.43 3550.62 1027.66 3591.79 1067.17C3631.26 1105.02 3654.52 1142.58 3667.37 1168.31C3650.3 1177.82 3634.21 1189.27 3619.43 1202.21C3609.14 1211.23 3599.48 1220.99 3590.58 1231.28C3578.66 1244.97 3567.89 1259.64 3558.52 1275.19C3553.36 1283.79 3548.61 1292.57 3544.48 1301.71C3543.51 1303.88 3545.73 1306.09 3547.89 1305.16C3551.53 1303.56 3555.06 1301.9 3558.58 1300.27C3596.27 1282.66 3635.78 1261.68 3674.1 1246.61C3675.95 1245.87 3677.8 1245.15 3679.67 1244.45C3688.48 1241.07 3697.42 1237.93 3706.47 1235.16C3720.61 1230.82 3735.02 1227.41 3749.69 1225.52C3775.43 1221.61 3799.03 1223.6 3821.03 1229.81C3825.21 1231 3829.33 1232.32 3833.4 1233.8C3839.09 1235.86 3844.68 1238.22 3850.18 1240.79C3851.43 1241.38 3852.67 1241.97 3853.91 1242.59C3897.67 1264.25 3935.27 1301.23 3971.62 1337.12L3974.21 1339.69C3975.69 1341.15 3978.22 1340.03 3978.09 1337.95C3976.85 1315.31 3970.57 1293.29 3962.07 1272.25C3953.02 1249.86 3940.1 1228.59 3924.11 1209.92C4001.22 1179.31 4083.6 1164.34 4165.77 1178.34C4230.97 1189.32 4291.56 1218.48 4344.91 1257.43C4468.7 1347.34 4475.24 1517.43 4465.83 1657.41C4465.51 1661.89 4465.15 1666.36 4464.78 1670.83C4463.88 1681.93 4462.83 1693.03 4461.66 1704.12C4459.01 1729.65 4455.73 1755.15 4451.99 1780.66C4450.73 1789.32 4462.49 1793.18 4466.58 1785.44C4466.64 1785.31 4466.71 1785.2 4466.77 1785.07C4475.65 1767.56 4484.03 1749.31 4491.73 1730.52C4509.92 1749.35 4524.55 1771.08 4533.08 1795.85L4534.31 1799.38L4534.93 1801.13L4535.41 1802.94L4537.34 1810.14C4538.19 1813.31 4538.87 1817.79 4539.63 1820.98C4540.5 1827.09 4541.37 1833.22 4541.66 1839.37C4542.16 1844.88 4541.96 1850.55 4542.07 1856.06C4541.75 1860.37 4541.62 1864.91 4541.3 1869.21L4540.44 1876.78C4539.71 1885.03 4537.85 1893.32 4535.77 1901.32C4501.99 2020.96 4338.89 2138.53 4215.31 2137.1C4196.46 2136.7 4177.31 2133.8 4159.77 2126.91C4152.41 2124.16 4144.71 2120.88 4137.5 2117.65C4134.01 2115.94 4130.29 2114.16 4126.79 2112.35L4124.99 2111.47L4123.27 2110.52C4116.53 2106.94 4109.19 2102.5 4102.85 2098.41C4055.24 2067.26 4025.44 2019.51 4016.71 1964.29C4015.84 1958.74 4008.04 1958.14 4006.38 1963.51C3996.88 1994.36 3997.29 2028.54 4005.03 2059.77C4009.31 2076.82 4016 2093.12 4024.56 2108.43C3986.11 2105.87 3947.43 2103.02 3911.35 2097.56C3878.74 2092.74 3846.27 2085.84 3815.88 2074.14C3752.18 2051.15 3713.3 2009.31 3686.42 1959.46C3681.48 1950.33 3676.96 1940.92 3672.76 1931.31C3671.06 1927.45 3669.42 1923.55 3667.84 1919.61C3665.09 1912.82 3662.48 1905.95 3659.98 1899.03C3650.1 1871.5 3642 1843.01 3634.05 1814.93L3632.82 1810.53C3632.11 1808.05 3628.36 1807.66 3627.04 1809.97C3612.57 1835.15 3604.46 1862.83 3599.6 1890.8C3598.72 1895.94 3598 1901.11 3597.43 1906.33C3596.82 1911.84 3596.4 1917.37 3596.17 1922.93C3595.4 1940.34 3596.4 1957.91 3599.15 1975.23C3599.82 1979.4 3600.58 1983.54 3601.44 1987.67C3610.35 2029.92 3630.01 2070.18 3660.67 2102.64C3630.2 2107.29 3599.95 2111.24 3570.86 2113.16C3534.06 2115.72 3496.93 2115.63 3460.99 2108.88C3385.99 2096.7 3333.82 2054.07 3292.94 1998.09C3285.44 1987.84 3278.32 1977.13 3271.52 1966.08C3268.78 1961.64 3266.09 1957.14 3263.45 1952.58C3258.87 1944.71 3254.43 1936.7 3250.1 1928.6C3232.97 1896.37 3217.56 1862.44 3202.4 1829.01L3200.04 1823.77C3198.69 1820.82 3194.5 1821.33 3193.59 1824.6C3183.55 1860.33 3181.02 1897.53 3182.15 1934.26C3182.36 1941 3182.76 1947.74 3183.33 1954.5C3183.94 1961.64 3184.75 1968.76 3185.77 1975.86C3150.87 1986.08 3115.97 1995.71 3081.62 2003.78C3035.42 2014.76 2987.66 2023.87 2938.53 2027.79C2818.2 2039.14 2720.52 2011.3 2633.14 1969.8C2618.28 1962.75 2603.71 1955.28 2589.39 1947.57C2553.41 1928.17 2518.92 1907.07 2484.97 1886.27L2479.66 1883.02C2476.64 1881.18 2471.49 1882.59 2471.73 1885.22C2474.29 1913.93 2487.13 1941.85 2504.47 1968.52C2507.66 1973.43 2511.1 1978.28 2514.77 1983.09C2498.8 1990.28 2482.88 1997.03 2467.13 2003.01C2434.91 2015.36 2401.61 2025.62 2367.34 2030.04C2332.57 2035.33 2300.52 2033.06 2270.56 2025.24C2258.43 2022.08 2246.64 2018 2235.17 2013.16C2165.71 1983.87 2107.35 1926.37 2051.08 1870.7L2047.39 1867.05C2045.28 1864.96 2041.69 1866.56 2041.85 1869.52C2043.63 1901.84 2052.59 1933.28 2064.69 1963.31C2079.25 1999.39 2100.84 2033.44 2127.81 2062.42C2128.9 2063.59 2130.01 2064.76 2131.12 2065.92C2130.01 2066.27 2128.9 2066.63 2127.81 2066.97C2126.07 2067.51 2124.34 2068.06 2122.61 2068.58C2095.22 2077.04 2066.89 2084.05 2037.76 2087.09C1975.68 2094.69 1923.75 2079.43 1877.17 2054.26C1875.36 2053.28 1873.57 2052.27 1871.78 2051.26C1873.58 2049.74 1875.4 2048.21 1877.17 2046.66C1889.65 2035.73 1901.36 2023.91 1912.13 2011.44C1926.6 1994.85 1939.65 1977.07 1950.99 1958.23C1957.26 1947.79 1963 1937.16 1968.01 1926.09C1969.19 1923.46 1966.5 1920.77 1963.88 1921.92C1959.47 1923.85 1955.2 1925.85 1950.93 1927.84C1905.25 1949.17 1857.37 1974.61 1810.94 1992.87C1808.69 1993.76 1806.44 1994.63 1804.19 1995.48C1793.51 1999.57 1782.67 2003.38 1771.71 2006.74C1754.57 2012 1737.1 2016.13 1719.33 2018.42C1605.37 2035.73 1525.68 1957.52 1450.38 1883.17L1447.24 1880.06C1445.45 1878.3 1442.39 1879.65 1442.53 1882.17C1444.05 1909.6 1451.66 1936.29 1461.95 1961.78C1468.71 1978.51 1477.27 1994.7 1487.37 2009.98C1440.88 2029.19 1393.44 2049.11 1347.27 2063.94C1312.26 2075.29 1276.07 2084.72 1238.83 2088.79C1093.2 2107.52 991.348 2022.84 895.123 1942.34L891.109 1938.98C888.818 1937.06 884.919 1938.53 885.099 1941.26C887.029 1970.97 896.77 1999.86 909.921 2027.47C937.162 2084.54 986.986 2136.05 1050.33 2167.91L1039.74 2174.42C925.157 2203.66 798.191 2208.13 705.801 2128.03L705.814 2128.02ZM640.06 3631.16C665.268 3612.36 691.286 3602.66 715.58 3602.66C725.012 3602.66 734.187 3604.12 742.963 3607.08C774.321 3617.66 798.217 3646.6 810.248 3688.57C823.424 3734.54 820.709 3789.39 802.617 3843.05C784.513 3896.71 753.437 3942 715.117 3970.58C680.117 3996.69 643.573 4005.25 612.214 3994.66C580.856 3984.08 556.96 3955.14 544.929 3913.17C531.752 3867.2 534.468 3812.35 552.56 3758.69C570.664 3705.03 601.74 3659.74 640.06 3631.16ZM362.864 4419.19C284.371 4401.95 223.944 4380.14 178.92 4352.87C131.413 4324.1 98.4971 4288.02 75.361 4239.32C39.5373 4163.96 73.6625 4098.51 125.777 4014.29C128.981 4009.12 130.551 4003.1 130.267 3997.01C125.095 3883.02 212.029 3796.62 212.917 3795.78L213.393 3795.32C222.181 3786.81 224.729 3773.72 219.775 3762.54C217.639 3757.04 185.843 3669.66 284.641 3587.43C336.537 3544.25 425.041 3555.6 490.151 3572.73C524.405 3581.73 555.802 3593.24 579.839 3603.09C542.986 3638.16 513.455 3685.51 495.273 3739.4C488.839 3758.46 484.052 3777.72 480.886 3796.88C477.361 3795.54 473.835 3794.24 470.283 3793C422.57 3775.87 371.357 3766.37 320.516 3769.58C298.011 3771.64 298.693 3803.74 321.314 3804.8C367.162 3804.85 412.134 3816.31 454.109 3834.48C461.585 3837.63 468.945 3841.11 476.37 3844.58C475.701 3874.33 479.149 3903.18 486.806 3929.9C495.221 3959.26 508.192 3984.47 524.945 4004.68C519.798 4022.62 506.892 4054.94 477.348 4075.61C441.962 4040.38 382.719 4023.06 325.187 4019.22C310.801 4017.23 297.702 4026.88 296.904 4041.66C296.222 4055.08 306.889 4066.4 320.298 4066.64C364.073 4069.42 430.381 4082.98 454.212 4122.72C465.703 4142.03 463.335 4166.79 456.335 4187.82C445.616 4218.79 428.322 4249.53 401.776 4269.15C332.856 4318.11 234.187 4264.12 173.593 4221.23C165.152 4215.16 156.865 4208.85 148.823 4202.28L144.885 4199.01L141.269 4195.91C131.374 4186.86 115.856 4187.76 107.131 4197.97C98.6001 4207.9 99.7067 4222.85 109.563 4231.42C115.341 4236.44 121.582 4241.58 127.604 4246.26C170.273 4279.11 215.632 4306.92 267.579 4324.06C380.403 4360.77 463.605 4312.46 501.616 4202.54C512.592 4168.22 512.039 4139.41 503.315 4115.52C535.561 4093.52 553.666 4062.86 563.639 4038.36C572.813 4043.94 582.58 4048.52 592.9 4052.01C608.148 4057.16 623.898 4059.69 639.854 4059.69C644.589 4059.69 649.35 4059.46 654.111 4059.02C657.843 4081.76 660.7 4122.98 646.314 4172.18C633.42 4216.28 609.319 4258.34 574.679 4297.23C538.148 4338.24 489.752 4375.81 430.471 4409.27C409.973 4420.84 385.884 4424.26 362.903 4419.22L362.864 4419.19ZM710.652 4397.43C652.992 4450.82 586.003 4472.98 511.537 4463.26C497.19 4461.4 483.872 4458.46 471.956 4455.12C532.846 4419.41 583.12 4379.17 621.865 4335.09C662.501 4288.85 690.643 4238.33 705.518 4184.91C716.648 4144.95 718.617 4109.33 717.202 4081.55C725.836 4089.49 735.281 4099.27 744.314 4110.89C779.97 4156.75 793.07 4208.97 783.239 4266.09C774.772 4315.27 748.998 4361.92 710.639 4397.44L710.652 4397.43ZM820.98 4346.49C923.072 4364.51 1007.02 4372.51 1069.78 4375.74C1084.06 4398.85 1103.73 4442.88 1081.24 4485.62C1000.16 4481.91 882.925 4469.46 761.171 4432.67C786.224 4407.39 806.478 4378.08 820.98 4346.49ZM1716.8 5386.83L1714.13 5387.32V5385.94C1714.98 5386.22 1715.85 5386.52 1716.8 5386.83ZM1714.14 5492.08C1764.39 5457.46 1827.43 5465.54 1856.6 5472.01V5555.75C1856.6 5594.79 1851.89 5606.92 1831.43 5620.57C1797.05 5643.5 1750.04 5633.95 1735.13 5616.32C1715.72 5593.39 1714.15 5561.48 1714.15 5525.17V5492.08H1714.14ZM2013.06 5597.64C2024.12 5610.61 2035.1 5638.38 2031.25 5659.04C2027.57 5679 2018.54 5697.66 2002.83 5710.22C1970.88 5735.63 1938.46 5747.57 1898.6 5759.62C1898.6 5759.62 1893.14 5761.21 1887.08 5762.98C1881.81 5764.51 1881.72 5771.98 1886.97 5773.62C1900.26 5777.76 1914.01 5780.21 1927.91 5781.75C1967.62 5786.11 2010.66 5779.3 2044.32 5759.13C2049.25 5777.46 2054.13 5795.89 2058.97 5814.27C2088.61 5929.03 2118.28 6043.93 2140 6160.41C2141.64 6170.1 2143.35 6180.48 2144.94 6190.22L2145.03 6190.8L2145.07 6191.17L2145.22 6192.65C2145.27 6193.14 2145.36 6193.63 2145.39 6194.13L2145.44 6195.61C2146.2 6210.45 2139.31 6225.44 2127.54 6234.47C2084.79 6266.62 2040.71 6297.28 1995.21 6325.17C1841.29 6420.91 1680.58 6463.45 1500.75 6475.74C1469.18 6478.08 1437.18 6480.17 1405.6 6477.93C1324.42 6473.23 1235.41 6441.86 1194.13 6367.46C1145.97 6279.69 1186.44 6176.44 1246.09 6104.7C1265.85 6080.65 1288.87 6057.92 1312.76 6037.88C1402.07 5961.14 1516.4 5916.46 1633.9 5908.38C1675.23 5905.6 1717.21 5906.24 1758.16 5912.88C1765.44 5914.48 1772.94 5910.26 1775.07 5902.9C1777.28 5895.31 1772.92 5887.37 1765.33 5885.15L1762.57 5884.36C1726.94 5874.65 1689.87 5870.25 1653.03 5868.95C1632.67 5868.27 1612.27 5868.71 1591.92 5870.23L1621.44 5799.83C1648.15 5808.49 1677.61 5810.92 1705.42 5807.86C1719.31 5806.31 1733.07 5803.87 1746.37 5799.73C1751.61 5798.09 1751.53 5790.63 1746.26 5789.08C1740.2 5787.32 1734.74 5785.73 1734.74 5785.73C1694.88 5773.68 1650.79 5761.28 1618.84 5735.86C1603.12 5723.3 1599.4 5708.57 1595.72 5688.61C1591.87 5667.95 1592.75 5645.71 1602.54 5627.21C1614.4 5604.79 1635.58 5591.89 1657.28 5582.85C1661.45 5608.47 1670.29 5633.32 1688.96 5655.39C1706.78 5676.44 1736.05 5690.45 1769.3 5693.84C1774.49 5694.37 1779.66 5694.62 1784.81 5694.62C1813.71 5694.62 1841.72 5686.4 1865 5670.88C1886.45 5656.57 1900.72 5639.3 1908.61 5618.09C1916.06 5598.04 1917.09 5576.28 1917.09 5555.75V5547.81C1944.34 5549.2 1977.49 5555.92 2013.08 5597.64H2013.06ZM3329.59 5500.47C3379.53 5465.54 3442.4 5473.25 3472.05 5479.72V5583.59C3472.05 5628.89 3466.59 5644.72 3445.51 5660.52C3410.91 5686.48 3366.11 5674.65 3351.64 5655.44C3331.25 5628.34 3329.59 5591.29 3329.59 5549.2V5500.47ZM3618.87 5639.93C3629.93 5652.91 3640.91 5680.67 3637.06 5701.34C3633.38 5721.3 3624.35 5739.96 3608.64 5752.51C3576.69 5777.93 3544.27 5789.87 3504.41 5801.91C3504.41 5801.91 3498.95 5803.51 3492.89 5805.27C3487.62 5806.8 3487.53 5814.28 3492.78 5815.91C3506.07 5820.06 3519.82 5822.5 3533.72 5824.05C3570.56 5828.09 3610.27 5822.51 3642.7 5805.58L3666.77 5864.68C3539.47 5865.07 3417.94 5912.55 3325.21 6006.56C3303.25 6028.32 3283.64 6052.69 3265.7 6077.62C3254.04 6094.9 3276.87 6113.5 3291.38 6098.51C3295.48 6094.01 3299.56 6089.49 3303.6 6084.96C3310.11 6077.38 3320.58 6067.01 3327.61 6059.74C3328.37 6058.97 3329.87 6057.4 3330.71 6056.71C3335.29 6052.46 3341.97 6046.21 3346.55 6041.93C3350.99 6037.98 3361.47 6029.03 3366.21 6025.08L3379.8 6014.53C3420.29 5983.54 3466.35 5959.12 3514.78 5943.28C3595.44 5917.29 3683.1 5914.74 3765.65 5933.25C3792.8 5939.25 3819.15 5949.22 3844.62 5960.79C3941.43 6006.05 4042.38 6080.31 4066.21 6189.98C4072.84 6220.94 4071.17 6253.5 4064.66 6284.48C4058.51 6316 4047.39 6347.08 4030.61 6374.09C3953.81 6497.97 3774.52 6521.23 3640.68 6533.39C3618.33 6535.27 3593.69 6536.67 3571.19 6536.95C3491.07 6537.91 3410.37 6526.21 3334.22 6501.1C3260.08 6476.5 3165.8 6430.55 3115.6 6368.54C3115.6 6367.65 3115.6 6366.78 3115.62 6365.89C3116.17 6347.44 3118.02 6328.45 3120.36 6310.12C3129.6 6239.13 3144.53 6168.37 3159.93 6098.32C3179.69 6010.14 3201.53 5922.05 3224.78 5834.66C3256.02 5849.27 3293.15 5853.95 3327.74 5850.15C3341.63 5848.61 3355.39 5846.17 3368.69 5842.02C3373.93 5840.39 3373.85 5832.92 3368.58 5831.38C3362.52 5829.62 3357.06 5828.02 3357.06 5828.02C3317.2 5815.98 3273.11 5803.57 3241.16 5778.16C3225.44 5765.6 3221.72 5750.87 3218.04 5730.91C3214.19 5710.24 3215.07 5688.01 3224.86 5669.5C3235.91 5648.63 3255.03 5636 3275.15 5627.07C3279.92 5649.95 3288.37 5671.95 3303.33 5691.82C3321.1 5715.43 3350.64 5731.18 3384.37 5735.03C3389.69 5735.63 3395.01 5735.94 3400.3 5735.94C3429.76 5735.94 3458.23 5726.59 3481.79 5708.92C3526.17 5675.64 3531.98 5634.23 3532.47 5590.86C3557.76 5593.52 3587.35 5603.02 3618.87 5639.95V5639.93ZM3852.18 4869.78L3851.26 4873.51L3847.54 4888.42L3845.69 4895.87L3843.49 4903.23C3776.51 5136.68 3571.51 5305 3330.71 5330.45C3203.46 5343.8 3061.44 5361.89 2934.14 5369.67C2659.79 5387.61 2383.35 5379.04 2110.55 5344.61C2028.45 5334.52 1942.39 5325.32 1860.43 5314.79C1846.05 5312.53 1831.54 5310.03 1817.24 5306.91C1808.88 5305.18 1799.43 5302.57 1791.09 5300.61C1786.21 5299.18 1773.79 5295.67 1768.94 5294.24C1763.58 5292.47 1756.11 5290.06 1750.71 5288.22C1684.12 5265.45 1621.69 5230.45 1567 5186.18C1500.69 5131.96 1445.76 5063.56 1408.3 4986.5C1404.53 4978.68 1398.69 4966.48 1395.59 4958.62C1393.88 4954.86 1391.12 4948.12 1389.77 4944.45C1386.59 4936.34 1381.81 4923.76 1379.3 4915.66C1377.95 4911.75 1375.6 4904.88 1374.61 4901.08C1370.97 4889.81 1367.48 4875.49 1364.56 4864.14C1363.07 4857.94 1360.75 4846.05 1359.34 4839.68C1322.81 4652.19 1238.63 4220.19 1203.43 4038.5C1153.44 3776.59 1097.15 3515.75 1055.65 3252.51C1041.62 3164.82 1029.6 3077.63 1018.05 2989.33C1006.9 2904.25 987.14 2756.34 967.067 2606.03C969.022 2549.78 984.953 2291.91 1113.15 2191.48C1119.03 2193 1124.99 2194.36 1131.01 2195.54C1264.92 2222.92 1398.69 2166.18 1485.3 2081.21C1496.52 2070.31 1507.06 2058.93 1516.86 2047.11C1548.76 2080.92 1589.35 2106.49 1634.98 2117.03C1697.27 2132.06 1759.54 2119.64 1814.02 2090.6C1814.2 2090.5 1814.39 2090.39 1814.57 2090.29C1848.66 2127.32 1897.21 2156.15 1953.4 2166.61C2039.06 2183.27 2124.64 2158.08 2190.05 2113.75C2191.57 2114.69 2193.1 2115.61 2194.63 2116.52C2217.42 2129.99 2242.09 2140.18 2268.15 2146.21C2381.96 2173.72 2495.67 2123.17 2575.18 2042.4C2631.7 2085.39 2708.44 2118.39 2796.22 2130.97C2945.59 2153.33 3094.86 2117.62 3206.5 2056.42C3229.19 2116.08 3267.27 2168.41 3319.09 2201.65C3431.63 2275.59 3577.55 2250.04 3691.25 2176.41C3703.14 2168.8 3714.73 2160.66 3726.02 2152.06C3808.96 2196.14 3914.84 2196.26 4006.67 2167.51C4010.8 2166.24 4014.91 2164.88 4018.99 2163.51C4022.98 2164.51 4027.16 2165.57 4031.53 2166.65C4245.33 2219.59 4250.85 2679.18 4250.85 2679.18C4238.11 2789.3 4215.29 3000.74 4202.04 3110.35C4187.19 3230.84 4169.72 3351.39 4147.94 3470.8C4101.34 3721.04 4035.68 4003.11 3983.64 4253.65C3969.83 4321.03 3862.83 4813.7 3852.22 4869.76L3852.18 4869.78ZM4152.75 4485.62C4130.26 4442.88 4149.92 4398.85 4164.21 4375.74C4226.97 4372.51 4310.92 4364.5 4413.01 4346.49C4427.51 4378.08 4447.77 4407.39 4472.82 4432.67C4351.06 4469.46 4233.83 4481.91 4152.75 4485.62ZM4722.44 4463.25C4647.99 4472.96 4580.98 4450.82 4523.32 4397.42C4484.98 4361.9 4459.19 4315.26 4450.73 4266.06C4440.89 4208.94 4453.99 4156.73 4489.65 4110.87C4498.68 4099.26 4508.12 4089.47 4516.76 4081.53C4515.35 4109.32 4517.32 4144.93 4528.45 4184.88C4543.32 4238.3 4571.48 4288.83 4612.1 4335.06C4650.84 4379.15 4701.12 4419.38 4762.01 4455.09C4750.09 4458.44 4736.79 4461.36 4722.43 4463.24L4722.44 4463.25ZM5158.64 4239.32C5135.49 4288.02 5102.59 4324.1 5055.08 4352.87C5010.06 4380.14 4949.62 4401.95 4871.14 4419.19C4848.14 4424.25 4824.07 4420.81 4803.57 4409.24C4744.29 4375.79 4695.89 4338.21 4659.36 4297.2C4624.72 4258.32 4600.62 4216.24 4587.73 4172.16C4573.34 4122.95 4576.2 4081.73 4579.93 4059C4584.7 4059.45 4589.45 4059.67 4594.19 4059.67C4610.14 4059.67 4625.89 4057.12 4641.14 4051.98C4651.46 4048.5 4661.23 4043.92 4670.4 4038.33C4680.38 4062.83 4698.48 4093.5 4730.73 4115.5C4721.99 4139.38 4721.45 4168.19 4732.42 4202.51C4770.44 4312.44 4853.64 4360.74 4966.46 4324.03C5018.41 4306.89 5063.75 4279.09 5106.44 4246.23C5112.46 4241.56 5118.7 4236.43 5124.48 4231.4C5134.33 4222.82 5135.44 4207.86 5126.91 4197.94C5118.19 4187.74 5102.67 4186.84 5092.77 4195.88L5089.16 4198.98L5085.22 4202.25C5077.18 4208.82 5068.9 4215.13 5060.45 4221.21C4999.85 4264.11 4901.18 4318.1 4832.27 4269.13C4805.72 4249.5 4788.42 4218.75 4777.71 4187.79C4770.71 4166.76 4768.34 4142.01 4779.83 4122.69C4803.66 4082.96 4869.97 4069.39 4913.74 4066.61C4927.16 4066.38 4937.82 4055.06 4937.14 4041.64C4936.34 4026.85 4923.24 4017.2 4908.85 4019.2C4851.32 4023.03 4792.08 4040.35 4756.69 4075.58C4727.16 4054.92 4714.24 4022.59 4709.1 4004.66C4725.85 3984.44 4738.81 3959.23 4747.24 3929.87C4754.89 3903.17 4758.34 3874.32 4757.67 3844.56C4765.1 3841.08 4772.46 3837.62 4779.93 3834.46C4821.91 3816.29 4866.88 3804.82 4912.73 3804.77C4935.35 3803.73 4936.03 3771.61 4913.52 3769.55C4862.68 3766.35 4811.47 3775.86 4763.76 3792.97C4760.21 3794.22 4756.67 3795.53 4753.15 3796.86C4749.99 3777.7 4745.19 3758.43 4738.77 3739.38C4720.59 3685.49 4691.06 3638.13 4654.2 3603.07C4678.24 3593.21 4709.64 3581.71 4743.89 3572.7C4809 3555.57 4897.5 3544.22 4949.4 3587.41C5048.2 3669.63 5016.39 3757.02 5014.27 3762.51C5009.31 3773.69 5011.85 3786.79 5020.65 3795.3L5021.12 3795.75C5022 3796.61 5108.95 3883.01 5103.77 3996.99C5103.5 4003.07 5105.06 4009.1 5108.26 4014.27C5160.38 4098.49 5194.5 4163.93 5158.68 4239.3L5158.64 4239.32Z" fill="black"/>
<path d="M3863.13 2773.15C3850.19 2760.53 3833.47 2750.43 3816.63 2743.35C3752.24 2716.34 3686.26 2713.83 3620.06 2737.15C3607.45 2741.58 3594.7 2746.87 3585.72 2759.6C3582.81 2763.7 3585.78 2769.32 3590.74 2769.32H3648.14C3647.28 2772.29 3647.28 2773.81 3646.62 2774.27C3641.27 2778.09 3635.92 2781.99 3630.24 2785.3C3489.29 2866.41 3338.16 2921.17 3178.99 2952.21C3043.44 2978.64 2905.92 2990.45 2768 2995.67C2546.28 3004.13 2325.47 2994.62 2106.51 2956.57C1985.17 2935.51 1865.42 2907.89 1753 2856.11C1716.35 2839.2 1681.74 2818 1646.6 2797.78L1652.21 2776.51C1656.31 2776.51 1660.4 2776.65 1664.5 2777.04C1673.94 2777.9 1683.13 2782.26 1692.57 2782.66C1697.19 2782.86 1701.95 2780.81 1706.64 2778.89C1709.48 2777.71 1711.06 2774.59 1710.27 2771.62C1709.08 2767.21 1708.03 2762.71 1705.25 2759.81C1684.44 2737.61 1660.13 2720.37 1630.22 2712.38C1545.28 2689.59 1430.48 2734.7 1383.92 2809.61C1382.19 2812.31 1381.27 2815.49 1380.42 2819.12C1379.22 2824.14 1384.51 2828.3 1389.13 2825.99C1410.99 2815.09 1431.08 2805.12 1451.42 2794.94C1455.97 2792.7 1461.12 2796.66 1460.2 2801.62C1453.47 2838.21 1447.06 2870.97 1441.77 2903.93C1439.79 2916.35 1439.53 2929.23 1450.03 2939.47C1452.87 2942.3 1457.76 2941.18 1459.54 2937.62C1475.38 2906.53 1490.63 2876.44 1505.8 2846.54L1521.83 2849.03V2849.3C1530.48 2910.99 1536.95 2973.08 1547.98 3034.38C1586.09 3245.54 1654.86 3446.07 1763.71 3631.67C1864.69 3803.87 1992.57 3951.5 2164.24 4057.04C2347.33 4169.66 2544.83 4211.48 2757.31 4170.59C2912.73 4140.67 3048.85 4069.54 3170.39 3969.86C3357.32 3816.49 3489.08 3621.97 3581.29 3400.89C3626.21 3293.3 3661.81 3181.6 3697.54 3070.45C3714.13 3018.93 3721.53 2964.43 3731.9 2910.99C3734.07 2900.09 3734.73 2888.87 3735.26 2877.64C3735.59 2871.1 3744.78 2869.46 3747.08 2875.59C3752.16 2889 3752.77 2902.94 3749.19 2917.8C3748.41 2921.11 3749.86 2924.93 3751.38 2928.76C3752.69 2932.01 3756.4 2933.52 3759.56 2932.07C3763 2930.55 3766.31 2928.89 3767.82 2926.25C3774.36 2914.96 3781.82 2903 3783.68 2890.52C3787.31 2866.48 3788.43 2842.1 3790.15 2817.73C3790.48 2813.11 3795.63 2810.53 3799.53 2812.98C3806.26 2817.2 3813.59 2821.83 3821.46 2825.19C3834.47 2830.81 3848.21 2836.23 3862.08 2838.01C3879.32 2840.26 3889.55 2829.62 3885 2812.91C3881.1 2798.58 3873.57 2783.32 3863.13 2773.15ZM3086.44 3942.84C2740.53 4207.37 2312.26 4153.81 2022.57 3850.57C2019.66 3847.53 2020.71 3842.45 2024.55 3840.73C2057.31 3825.87 2088.62 3810.55 2120.98 3798.13C2182.27 3774.67 2245.55 3759.09 2311.39 3755.06C2369.32 3751.56 2425.14 3759.62 2477.26 3786.1C2497.86 3796.61 2518.07 3799.12 2539.41 3789.68C2711.55 3713.47 2962.95 3800.61 3082.01 3936.17C3083.53 3937.95 3084.65 3940.07 3086.5 3942.9L3086.44 3942.84ZM3400.18 2988.15C3344.81 3286.59 3013.6 3377.06 2704.45 3374.76C2409.55 3372.56 1989.24 3311.23 1883.26 3005.71C1881.61 3000.95 1879.89 2996.01 1878.37 2991.44C1876.85 2986.89 1880.88 2982.46 1885.56 2983.59H1885.64C2389.8 3103.34 2890.59 3098.11 3392.72 2981.15C3397.02 2980.16 3400.98 2983.85 3400.18 2988.15Z" fill="black"/>
<path d="M2260.14 2914.23C2342.92 2914.23 2410.01 2789.12 2410.01 2634.77C2410.01 2480.43 2342.92 2355.31 2260.14 2355.31C2177.36 2355.31 2110.27 2480.44 2110.27 2634.77C2110.27 2789.11 2177.38 2914.23 2260.14 2914.23ZM2239.33 2428.03C2263.38 2428.03 2282.87 2475.34 2282.87 2533.71C2282.87 2592.08 2263.38 2639.39 2239.33 2639.39C2215.28 2639.39 2195.82 2592.08 2195.82 2533.71C2195.82 2475.34 2215.3 2428.03 2239.33 2428.03Z" fill="black"/>
<path d="M3163.47 2914.23C3246.23 2914.23 3313.34 2789.12 3313.34 2634.77C3313.34 2480.43 3246.23 2355.31 3163.47 2355.31C3080.7 2355.31 3013.6 2480.44 3013.6 2634.77C3013.6 2789.11 3080.69 2914.23 3163.47 2914.23ZM3142.65 2428.03C3166.68 2428.03 3186.18 2475.34 3186.18 2533.71C3186.18 2592.08 3166.68 2639.39 3142.65 2639.39C3118.61 2639.39 3099.12 2592.08 3099.12 2533.71C3099.12 2475.34 3118.61 2428.03 3142.65 2428.03Z" fill="black"/>
<path d="M3086.44 3942.84C2740.53 4207.37 2312.26 4153.81 2022.56 3850.57C2019.66 3847.53 2020.71 3842.45 2024.55 3840.74C2057.31 3825.87 2088.61 3810.55 2120.98 3798.13C2182.27 3774.67 2245.55 3759.09 2311.39 3755.06C2369.32 3751.56 2425.14 3759.62 2477.26 3786.1C2497.86 3796.61 2518.07 3799.12 2539.41 3789.68C2711.55 3713.47 2962.95 3800.61 3082.01 3936.17C3083.53 3937.95 3084.65 3940.07 3086.5 3942.9L3086.44 3942.84Z" fill="white"/>
<path d="M3400.18 2988.15C3344.81 3286.59 3013.6 3377.06 2704.45 3374.76C2409.55 3372.56 1989.24 3311.23 1883.26 3005.71C1881.61 3000.95 1879.89 2996.01 1878.37 2991.44C1876.85 2986.89 1880.88 2982.46 1885.56 2983.59H1885.64C2389.8 3103.34 2890.59 3098.11 3392.72 2981.15C3397.01 2980.16 3400.98 2983.85 3400.18 2988.15Z" fill="white"/>
<path d="M3142.65 2639.39C3166.69 2639.39 3186.18 2592.08 3186.18 2533.71C3186.18 2475.34 3166.69 2428.03 3142.65 2428.03C3118.61 2428.03 3099.12 2475.34 3099.12 2533.71C3099.12 2592.08 3118.61 2639.39 3142.65 2639.39Z" fill="white"/>
<path d="M2239.34 2428.03C2263.38 2428.03 2282.87 2475.34 2282.87 2533.71C2282.87 2592.08 2263.38 2639.39 2239.34 2639.39C2215.29 2639.39 2195.82 2592.08 2195.82 2533.71C2195.82 2475.34 2215.3 2428.03 2239.34 2428.03Z" fill="white"/>
<path d="M705.814 2128.02C655.308 2084.74 622.895 2023.7 605.6 1960C574.847 1844.66 586.942 1718.14 634.977 1609.18C665.821 1539.75 716.919 1480 780.652 1438.41C847.796 1394.74 924.771 1367.9 1004.54 1352.38L1034.12 1347.16C1097.58 1337.04 1162.23 1333.57 1224.63 1334.04C1171.75 1318.54 1115.87 1309.45 1059.59 1306.83C1086.07 1264.34 1112.96 1221.14 1141.24 1181.24C1143.24 1178.43 1145.22 1175.64 1147.24 1172.86C1156.72 1159.67 1166.57 1146.55 1176.84 1133.64C1192.89 1113.46 1210.05 1093.84 1228.72 1075.36C1323.97 978.097 1433.68 949.659 1542.27 935.144C1564.37 986.628 1590.97 1038.64 1621.89 1090.82L1626.29 1097.07C1632.66 1104.19 1629.98 1096.49 1628.89 1087.86C1622.3 1035.49 1611.82 982.124 1600.84 928.299L1593.65 893.157C1560 728.592 1528.56 560.952 1595.42 405.832C1630.31 325.035 1686.54 257.724 1754.34 203.873C1693.9 354.348 1675.72 515.361 1803.8 641.606C1834.58 671.948 1878.29 705.289 1910.14 723.985C1982.3 766.359 2009.27 784.193 2051.78 813.776C2122.3 862.648 2168.73 906.488 2239.93 963.659C2239.98 963.698 2240.02 963.736 2240.07 963.775C2241.75 965.165 2244.15 963.466 2243.36 961.446C2236.95 944.962 2229.01 929.045 2220.61 913.462C2185.2 849.497 2148.27 797.087 2102.26 751.728L2179.38 604.239C2185.69 628.25 2194.37 652.158 2205.31 675.397C2238.36 745.59 2291.86 811.241 2364.33 870.497C2446.45 937.653 2553.62 996.948 2683.17 1046.98C2647.38 1094.07 2625.57 1140.38 2612.68 1175.05C2592.63 1160.59 2570.03 1149.79 2545.7 1144.17C2494.3 1131.76 2442.91 1142.01 2397.95 1165.98C2379.31 1175.91 2361.77 1188.2 2345.78 1202.24C2335.48 1211.26 2325.82 1221.01 2316.93 1231.29C2305 1244.99 2294.23 1259.65 2284.86 1275.2C2279.69 1283.81 2274.95 1292.58 2270.82 1301.72C2269.84 1303.88 2272.07 1306.11 2274.23 1305.15C2277.86 1303.56 2281.39 1301.91 2284.91 1300.27C2322.6 1282.66 2362.12 1261.66 2400.43 1246.61C2402.28 1245.87 2404.14 1245.15 2406 1244.45C2414.81 1241.07 2423.75 1237.92 2432.8 1235.15C2446.94 1230.81 2461.37 1227.41 2476.02 1225.52C2570.06 1211.23 2635.81 1275.78 2697.95 1337.13L2700.54 1339.7C2702.02 1341.16 2704.54 1340.04 2704.42 1337.97C2703.18 1315.33 2696.88 1293.3 2688.4 1272.28C2683.88 1261.07 2678.37 1250.15 2671.99 1239.68C2677.31 1217.76 2698.47 1144.95 2757.93 1075.08C2798.9 1026.93 2850.09 989.279 2910.06 963.196C2986.19 930.087 3077.15 915.392 3180.39 919.484C3279.02 923.396 3366.79 940.857 3441.24 971.367C3499.96 995.429 3550.62 1027.66 3591.79 1067.17C3631.26 1105.02 3654.52 1142.58 3667.37 1168.31C3650.3 1177.82 3634.21 1189.27 3619.43 1202.21C3609.14 1211.23 3599.48 1220.99 3590.58 1231.28C3578.66 1244.97 3567.89 1259.64 3558.52 1275.19C3553.36 1283.79 3548.61 1292.57 3544.48 1301.71C3543.51 1303.88 3545.73 1306.09 3547.89 1305.15C3551.53 1303.56 3555.06 1301.9 3558.58 1300.27C3596.27 1282.66 3635.78 1261.67 3674.1 1246.61C3675.95 1245.87 3677.8 1245.15 3679.67 1244.45C3688.48 1241.07 3697.42 1237.93 3706.47 1235.15C3720.61 1230.82 3735.02 1227.41 3749.69 1225.52C3775.43 1221.6 3799.03 1223.6 3821.03 1229.81C3825.21 1231 3829.33 1232.32 3833.4 1233.8C3839.09 1235.86 3844.68 1238.22 3850.18 1240.79C3851.43 1241.38 3852.67 1241.97 3853.91 1242.59C3897.67 1264.25 3935.27 1301.23 3971.62 1337.12L3974.21 1339.69C3975.69 1341.15 3978.22 1340.03 3978.09 1337.95C3976.85 1315.31 3970.57 1293.29 3962.07 1272.25C3953.02 1249.86 3940.1 1228.59 3924.11 1209.92C4001.22 1179.31 4083.6 1164.34 4165.77 1178.34C4230.97 1189.32 4291.56 1218.48 4344.91 1257.43C4468.7 1347.34 4475.24 1517.43 4465.83 1657.41C4465.51 1661.89 4465.15 1666.36 4464.78 1670.83C4463.88 1681.93 4462.83 1693.03 4461.66 1704.12C4459.01 1729.65 4455.73 1755.15 4451.99 1780.65C4450.73 1789.31 4462.49 1793.18 4466.58 1785.44C4466.64 1785.31 4466.71 1785.2 4466.77 1785.07C4475.65 1767.56 4484.03 1749.31 4491.73 1730.52C4509.92 1749.35 4524.55 1771.08 4533.08 1795.85L4534.31 1799.38L4534.93 1801.13L4535.41 1802.94L4537.34 1810.13C4538.19 1813.31 4538.87 1817.79 4539.63 1820.98C4540.5 1827.09 4541.37 1833.22 4541.66 1839.37C4542.16 1844.88 4541.96 1850.55 4542.07 1856.06C4541.75 1860.37 4541.62 1864.91 4541.3 1869.21L4540.44 1876.78C4539.71 1885.02 4537.85 1893.32 4535.77 1901.32C4501.99 2020.96 4338.89 2138.53 4215.31 2137.1C4196.46 2136.7 4177.31 2133.8 4159.77 2126.91C4152.41 2124.16 4144.71 2120.88 4137.5 2117.65C4134.01 2115.94 4130.29 2114.16 4126.79 2112.35L4124.99 2111.47L4123.27 2110.52C4116.53 2106.94 4109.19 2102.5 4102.85 2098.41C4055.24 2067.26 4025.44 2019.51 4016.71 1964.29C4015.84 1958.74 4008.04 1958.14 4006.38 1963.5C3996.88 1994.36 3997.29 2028.54 4005.03 2059.77C4009.31 2076.82 4016 2093.12 4024.56 2108.43C3986.11 2105.87 3947.43 2103.02 3911.35 2097.56C3878.74 2092.73 3846.27 2085.84 3815.88 2074.14C3752.18 2051.15 3713.3 2009.31 3686.42 1959.46C3681.48 1950.33 3676.97 1940.92 3672.76 1931.31C3671.06 1927.45 3669.42 1923.55 3667.84 1919.61C3665.09 1912.82 3662.48 1905.95 3659.98 1899.02C3650.1 1871.5 3642 1843.01 3634.05 1814.93L3632.82 1810.53C3632.11 1808.05 3628.36 1807.66 3627.04 1809.97C3612.57 1835.15 3604.46 1862.83 3599.6 1890.8C3598.72 1895.94 3598 1901.11 3597.43 1906.33C3596.82 1911.84 3596.4 1917.37 3596.17 1922.93C3595.4 1940.34 3596.4 1957.91 3599.15 1975.23C3599.82 1979.4 3600.58 1983.54 3601.44 1987.67C3610.35 2029.91 3630.01 2070.18 3660.67 2102.64C3630.2 2107.29 3599.95 2111.24 3570.86 2113.16C3534.06 2115.72 3496.93 2115.63 3460.99 2108.88C3385.99 2096.7 3333.82 2054.07 3292.94 1998.09C3285.44 1987.84 3278.32 1977.13 3271.52 1966.08C3268.78 1961.64 3266.09 1957.14 3263.45 1952.58C3258.87 1944.71 3254.43 1936.7 3250.1 1928.59C3232.97 1896.37 3217.56 1862.44 3202.4 1829.01L3200.04 1823.77C3198.69 1820.81 3194.5 1821.33 3193.59 1824.6C3183.55 1860.33 3181.02 1897.53 3182.15 1934.26C3182.36 1941 3182.76 1947.74 3183.33 1954.5C3183.94 1961.64 3184.75 1968.75 3185.77 1975.86C3150.87 1986.07 3115.97 1995.71 3081.62 2003.78C3035.42 2014.76 2987.66 2023.87 2938.53 2027.79C2818.2 2039.14 2720.52 2011.3 2633.14 1969.8C2618.28 1962.75 2603.71 1955.28 2589.39 1947.57C2553.41 1928.17 2518.92 1907.07 2484.97 1886.27L2479.66 1883.02C2476.64 1881.18 2471.49 1882.59 2471.73 1885.22C2474.29 1913.93 2487.13 1941.85 2504.47 1968.52C2507.66 1973.43 2511.1 1978.28 2514.77 1983.09C2498.8 1990.28 2482.88 1997.03 2467.13 2003.01C2434.91 2015.36 2401.61 2025.62 2367.34 2030.04C2332.57 2035.33 2300.52 2033.05 2270.56 2025.24C2258.43 2022.08 2246.64 2018 2235.17 2013.16C2165.71 1983.87 2107.35 1926.37 2051.08 1870.7L2047.39 1867.05C2045.28 1864.96 2041.69 1866.56 2041.85 1869.52C2043.63 1901.84 2052.59 1933.28 2064.69 1963.31C2079.25 1999.39 2100.84 2033.44 2127.81 2062.42C2128.9 2063.59 2130.01 2064.76 2131.12 2065.92C2130.01 2066.27 2128.9 2066.63 2127.81 2066.97C2126.07 2067.51 2124.34 2068.05 2122.61 2068.58C2095.22 2077.04 2066.89 2084.05 2037.76 2087.09C1975.68 2094.69 1923.75 2079.43 1877.17 2054.26C1875.36 2053.28 1873.57 2052.27 1871.78 2051.26C1873.58 2049.74 1875.4 2048.21 1877.17 2046.66C1889.65 2035.73 1901.36 2023.91 1912.13 2011.44C1926.6 1994.85 1939.65 1977.07 1951 1958.23C1957.26 1947.79 1963 1937.16 1968.01 1926.09C1969.19 1923.46 1966.5 1920.77 1963.88 1921.92C1959.48 1923.85 1955.2 1925.85 1950.93 1927.84C1905.25 1949.17 1857.37 1974.61 1810.94 1992.87C1808.69 1993.76 1806.44 1994.63 1804.19 1995.48C1793.51 1999.57 1782.67 2003.38 1771.71 2006.74C1754.57 2012 1737.1 2016.13 1719.33 2018.42C1605.37 2035.73 1525.68 1957.52 1450.38 1883.17L1447.24 1880.06C1445.45 1878.29 1442.39 1879.65 1442.53 1882.17C1444.05 1909.6 1451.66 1936.29 1461.95 1961.78C1468.71 1978.51 1477.27 1994.7 1487.37 2009.98C1440.88 2029.19 1393.44 2049.11 1347.27 2063.94C1312.26 2075.29 1276.07 2084.72 1238.83 2088.78C1093.2 2107.52 991.348 2022.84 895.124 1942.34L891.109 1938.98C888.818 1937.06 884.919 1938.53 885.1 1941.26C887.03 1970.97 896.771 1999.86 909.921 2027.47C937.162 2084.54 986.986 2136.05 1050.33 2167.91L1039.74 2174.42C925.157 2203.65 798.191 2208.13 705.801 2128.03L705.814 2128.02Z" fill="white"/>
<path d="M640.06 3631.16C665.268 3612.36 691.286 3602.66 715.581 3602.66C725.013 3602.66 734.187 3604.12 742.963 3607.08C774.322 3617.66 798.217 3646.6 810.248 3688.57C823.425 3734.54 820.71 3789.39 802.618 3843.05C784.513 3896.71 753.437 3942 715.117 3970.58C680.117 3996.69 643.573 4005.25 612.214 3994.66C580.856 3984.08 556.961 3955.14 544.929 3913.17C531.753 3867.2 534.468 3812.35 552.56 3758.69C570.665 3705.03 601.74 3659.74 640.06 3631.16Z" fill="white"/>
<path d="M362.865 4419.19C284.372 4401.95 223.945 4380.14 178.921 4352.87C131.414 4324.1 98.498 4288.02 75.3619 4239.32C39.5382 4163.96 73.6634 4098.51 125.778 4014.29C128.982 4009.12 130.551 4003.1 130.268 3997.01C125.096 3883.02 212.03 3796.62 212.918 3795.78L213.394 3795.32C222.182 3786.81 224.73 3773.72 219.776 3762.54C217.64 3757.04 185.844 3669.66 284.642 3587.43C336.538 3544.25 425.042 3555.6 490.152 3572.73C524.406 3581.73 555.803 3593.24 579.84 3603.09C542.987 3638.16 513.456 3685.51 495.273 3739.4C488.84 3758.46 484.053 3777.72 480.887 3796.88C477.362 3795.54 473.836 3794.24 470.284 3793C422.571 3775.87 371.358 3766.37 320.517 3769.58C298.012 3771.64 298.694 3803.74 321.315 3804.8C367.163 3804.85 412.135 3816.31 454.11 3834.48C461.586 3837.63 468.946 3841.11 476.371 3844.58C475.702 3874.33 479.15 3903.18 486.807 3929.9C495.222 3959.26 508.193 3984.47 524.946 4004.68C519.799 4022.62 506.893 4054.94 477.349 4075.61C441.963 4040.38 382.72 4023.06 325.188 4019.22C310.802 4017.23 297.703 4026.88 296.905 4041.66C296.223 4055.09 306.89 4066.4 320.298 4066.64C364.074 4069.42 430.382 4082.98 454.213 4122.72C465.703 4142.03 463.336 4166.79 456.336 4187.82C445.617 4218.79 428.323 4249.53 401.777 4269.15C332.857 4318.11 234.188 4264.12 173.594 4221.23C165.153 4215.16 156.866 4208.85 148.824 4202.28L144.886 4199.01L141.27 4195.91C131.375 4186.86 115.857 4187.76 107.132 4197.97C98.601 4207.9 99.7076 4222.85 109.564 4231.42C115.342 4236.44 121.583 4241.58 127.605 4246.26C170.274 4279.11 215.633 4306.92 267.58 4324.06C380.404 4360.77 463.606 4312.46 501.617 4202.54C512.593 4168.22 512.04 4139.41 503.316 4115.52C535.562 4093.52 553.667 4062.86 563.64 4038.36C572.814 4043.94 582.581 4048.52 592.901 4052.01C608.149 4057.16 623.899 4059.69 639.855 4059.69C644.59 4059.69 649.351 4059.46 654.112 4059.02C657.844 4081.76 660.701 4122.98 646.314 4172.18C633.421 4216.28 609.32 4258.34 574.68 4297.23C538.149 4338.24 489.753 4375.81 430.472 4409.27C409.974 4420.84 385.885 4424.26 362.903 4419.22L362.865 4419.19Z" fill="white"/>
<path d="M710.653 4397.43C652.993 4450.82 586.003 4472.98 511.538 4463.26C497.191 4461.39 483.873 4458.46 471.957 4455.11C532.847 4419.41 583.121 4379.17 621.866 4335.08C662.502 4288.85 690.644 4238.33 705.519 4184.91C716.649 4144.95 718.618 4109.33 717.202 4081.55C725.837 4089.49 735.282 4099.27 744.315 4110.89C779.971 4156.75 793.07 4208.97 783.239 4266.09C774.773 4315.27 748.999 4361.91 710.64 4397.44L710.653 4397.43Z" fill="white"/>
<path d="M820.98 4346.49C923.072 4364.51 1007.02 4372.51 1069.78 4375.74C1084.06 4398.85 1103.73 4442.88 1081.24 4485.63C1000.16 4481.91 882.925 4469.46 761.171 4432.68C786.224 4407.39 806.478 4378.08 820.98 4346.49Z" fill="#FFCA29"/>
<path d="M5158.64 4239.32C5135.49 4288.02 5102.59 4324.1 5055.08 4352.87C5010.06 4380.14 4949.62 4401.95 4871.14 4419.19C4848.14 4424.25 4824.07 4420.81 4803.57 4409.24C4744.29 4375.79 4695.89 4338.21 4659.36 4297.2C4624.72 4258.32 4600.62 4216.24 4587.73 4172.16C4573.34 4122.95 4576.2 4081.73 4579.93 4059C4584.7 4059.45 4589.45 4059.67 4594.19 4059.67C4610.14 4059.67 4625.89 4057.12 4641.14 4051.98C4651.46 4048.5 4661.23 4043.92 4670.4 4038.33C4680.37 4062.83 4698.48 4093.49 4730.73 4115.5C4721.99 4139.38 4721.45 4168.19 4732.42 4202.51C4770.44 4312.44 4853.64 4360.74 4966.46 4324.03C5018.41 4306.89 5063.75 4279.09 5106.44 4246.23C5112.46 4241.56 5118.7 4236.43 5124.48 4231.4C5134.33 4222.82 5135.44 4207.86 5126.91 4197.94C5118.19 4187.74 5102.67 4186.84 5092.77 4195.88L5089.16 4198.98L5085.22 4202.25C5077.18 4208.81 5068.9 4215.13 5060.45 4221.21C4999.85 4264.11 4901.18 4318.1 4832.27 4269.13C4805.72 4249.5 4788.42 4218.75 4777.71 4187.79C4770.71 4166.76 4768.34 4142.01 4779.83 4122.69C4803.66 4082.96 4869.97 4069.39 4913.74 4066.61C4927.16 4066.38 4937.82 4055.06 4937.14 4041.64C4936.34 4026.85 4923.24 4017.2 4908.85 4019.2C4851.32 4023.03 4792.08 4040.35 4756.69 4075.58C4727.16 4054.92 4714.24 4022.59 4709.1 4004.66C4725.85 3984.44 4738.81 3959.23 4747.24 3929.87C4754.89 3903.17 4758.34 3874.32 4757.67 3844.56C4765.1 3841.08 4772.46 3837.62 4779.93 3834.45C4821.91 3816.29 4866.88 3804.82 4912.73 3804.77C4935.35 3803.73 4936.03 3771.61 4913.52 3769.55C4862.68 3766.35 4811.47 3775.86 4763.76 3792.97C4760.21 3794.22 4756.67 3795.53 4753.15 3796.86C4749.99 3777.7 4745.19 3758.43 4738.77 3739.38C4720.59 3685.49 4691.06 3638.13 4654.2 3603.07C4678.24 3593.21 4709.64 3581.71 4743.89 3572.7C4809 3555.57 4897.5 3544.22 4949.4 3587.41C5048.2 3669.63 5016.39 3757.02 5014.27 3762.51C5009.31 3773.69 5011.85 3786.79 5020.65 3795.3L5021.12 3795.75C5022 3796.61 5108.95 3883 5103.77 3996.99C5103.5 4003.07 5105.06 4009.1 5108.26 4014.27C5160.38 4098.49 5194.5 4163.93 5158.68 4239.3L5158.64 4239.32Z" fill="white"/>
<path d="M4431.39 3843.05C4413.28 3789.39 4410.58 3734.54 4423.75 3688.57C4435.79 3646.6 4459.68 3617.66 4491.04 3607.08C4499.82 3604.12 4508.99 3602.66 4518.42 3602.66C4542.72 3602.66 4568.73 3612.36 4593.94 3631.16C4632.26 3659.75 4663.34 3705.04 4681.44 3758.69C4699.55 3812.35 4702.25 3867.2 4689.07 3913.17C4677.04 3955.14 4653.15 3984.08 4621.79 3994.66C4590.43 4005.23 4553.89 3996.69 4518.89 3970.58C4480.57 3941.99 4449.49 3896.7 4431.39 3843.05Z" fill="white"/>
<path d="M4722.44 4463.25C4647.99 4472.96 4580.99 4450.82 4523.33 4397.42C4484.98 4361.9 4459.19 4315.26 4450.73 4266.06C4440.9 4208.94 4454 4156.73 4489.65 4110.87C4498.69 4099.26 4508.12 4089.47 4516.76 4081.53C4515.35 4109.32 4517.32 4144.93 4528.45 4184.88C4543.32 4238.3 4571.48 4288.83 4612.1 4335.06C4650.85 4379.15 4701.12 4419.38 4762.01 4455.09C4750.09 4458.44 4736.79 4461.36 4722.43 4463.24L4722.44 4463.25Z" fill="white"/>
<path d="M4152.75 4485.63C4130.25 4442.88 4149.92 4398.85 4164.21 4375.74C4226.97 4372.51 4310.92 4364.5 4413.01 4346.49C4427.51 4378.08 4447.76 4407.39 4472.82 4432.68C4351.06 4469.46 4233.83 4481.91 4152.75 4485.63Z" fill="#FFCA29"/>
<path d="M3329.59 5500.47C3379.53 5465.54 3442.4 5473.25 3472.05 5479.72V5583.59C3472.05 5628.89 3466.59 5644.72 3445.51 5660.52C3410.91 5686.48 3366.11 5674.65 3351.64 5655.44C3331.25 5628.34 3329.59 5591.29 3329.59 5549.2V5500.47Z" fill="#FFCA29"/>
<path d="M1714.14 5492.09C1764.39 5457.46 1827.43 5465.54 1856.6 5472.01V5555.76C1856.6 5594.8 1851.89 5606.92 1831.43 5620.57C1797.05 5643.5 1750.04 5633.95 1735.13 5616.32C1715.72 5593.39 1714.15 5561.48 1714.15 5525.17V5492.09H1714.14Z" fill="#FFCA29"/>
<path d="M2013.06 5597.64C2024.12 5610.61 2035.1 5638.38 2031.25 5659.04C2027.57 5679 2018.54 5697.66 2002.83 5710.22C1970.88 5735.63 1938.46 5747.57 1898.6 5759.62C1898.6 5759.62 1893.14 5761.21 1887.08 5762.98C1881.81 5764.51 1881.72 5771.98 1886.97 5773.62C1900.26 5777.76 1914.01 5780.2 1927.91 5781.75C1967.62 5786.11 2010.66 5779.3 2044.32 5759.13C2049.25 5777.46 2054.13 5795.89 2058.97 5814.27C2088.61 5929.03 2118.27 6043.93 2140 6160.41C2141.64 6170.1 2143.35 6180.48 2144.94 6190.22L2145.03 6190.8L2145.07 6191.17L2145.22 6192.65C2145.27 6193.14 2145.36 6193.63 2145.39 6194.13L2145.44 6195.61C2146.2 6210.45 2139.31 6225.44 2127.54 6234.47C2084.79 6266.62 2040.71 6297.28 1995.21 6325.16C1841.28 6420.91 1680.58 6463.45 1500.75 6475.74C1469.18 6478.08 1437.17 6480.17 1405.6 6477.93C1324.42 6473.23 1235.41 6441.86 1194.13 6367.46C1145.97 6279.69 1186.43 6176.44 1246.09 6104.7C1265.85 6080.65 1288.87 6057.92 1312.76 6037.88C1402.07 5961.14 1516.4 5916.46 1633.9 5908.38C1675.23 5905.6 1717.21 5906.24 1758.16 5912.88C1765.44 5914.48 1772.94 5910.26 1775.07 5902.9C1777.28 5895.31 1772.92 5887.37 1765.33 5885.15L1762.57 5884.36C1726.94 5874.65 1689.87 5870.25 1653.03 5868.95C1632.67 5868.27 1612.27 5868.71 1591.92 5870.23L1621.44 5799.83C1648.15 5808.49 1677.61 5810.92 1705.41 5807.86C1719.31 5806.31 1733.07 5803.87 1746.37 5799.73C1751.61 5798.09 1751.53 5790.63 1746.26 5789.08C1740.2 5787.32 1734.74 5785.72 1734.74 5785.72C1694.88 5773.68 1650.79 5761.28 1618.84 5735.86C1603.12 5723.3 1599.4 5708.57 1595.72 5688.61C1591.87 5667.95 1592.75 5645.71 1602.54 5627.21C1614.4 5604.79 1635.58 5591.89 1657.28 5582.85C1661.45 5608.47 1670.29 5633.32 1688.96 5655.39C1706.78 5676.44 1736.05 5690.45 1769.3 5693.84C1774.49 5694.36 1779.66 5694.62 1784.81 5694.62C1813.71 5694.62 1841.72 5686.4 1865 5670.88C1886.45 5656.57 1900.72 5639.3 1908.61 5618.08C1916.06 5598.04 1917.09 5576.28 1917.09 5555.75V5547.81C1944.34 5549.2 1977.49 5555.92 2013.08 5597.64H2013.06Z" fill="white"/>
<path d="M3618.87 5639.93C3629.93 5652.9 3640.91 5680.67 3637.06 5701.34C3633.38 5721.3 3624.35 5739.95 3608.64 5752.51C3576.69 5777.93 3544.27 5789.87 3504.41 5801.91C3504.41 5801.91 3498.95 5803.51 3492.89 5805.27C3487.62 5806.8 3487.53 5814.28 3492.78 5815.91C3506.07 5820.06 3519.82 5822.5 3533.72 5824.05C3570.56 5828.09 3610.27 5822.51 3642.7 5805.58L3666.77 5864.68C3539.47 5865.07 3417.94 5912.55 3325.21 6006.56C3303.25 6028.32 3283.64 6052.69 3265.7 6077.62C3254.04 6094.9 3276.87 6113.5 3291.38 6098.51C3295.48 6094.01 3299.55 6089.49 3303.59 6084.96C3310.11 6077.38 3320.58 6067.01 3327.61 6059.74C3328.37 6058.97 3329.87 6057.4 3330.71 6056.71C3335.29 6052.46 3341.97 6046.21 3346.55 6041.93C3350.99 6037.98 3361.47 6029.03 3366.21 6025.08L3379.8 6014.53C3420.29 5983.54 3466.35 5959.12 3514.78 5943.28C3595.43 5917.28 3683.1 5914.74 3765.65 5933.25C3792.8 5939.25 3819.15 5949.22 3844.62 5960.79C3941.43 6006.05 4042.38 6080.31 4066.21 6189.98C4072.84 6220.94 4071.17 6253.5 4064.65 6284.48C4058.5 6316 4047.39 6347.08 4030.61 6374.09C3953.81 6497.96 3774.51 6521.23 3640.68 6533.39C3618.33 6535.27 3593.68 6536.67 3571.19 6536.95C3491.06 6537.91 3410.37 6526.21 3334.22 6501.1C3260.08 6476.5 3165.79 6430.55 3115.6 6368.54C3115.6 6367.65 3115.6 6366.78 3115.62 6365.89C3116.16 6347.44 3118.02 6328.45 3120.36 6310.12C3129.6 6239.13 3144.52 6168.37 3159.93 6098.32C3179.69 6010.14 3201.53 5922.05 3224.78 5834.66C3256.02 5849.27 3293.15 5853.95 3327.73 5850.15C3341.63 5848.61 3355.39 5846.16 3368.69 5842.02C3373.93 5840.39 3373.85 5832.92 3368.58 5831.38C3362.52 5829.62 3357.06 5828.02 3357.06 5828.02C3317.2 5815.98 3273.11 5803.57 3241.16 5778.16C3225.44 5765.6 3221.72 5750.87 3218.04 5730.91C3214.19 5710.24 3215.06 5688.01 3224.86 5669.5C3235.91 5648.63 3255.03 5636 3275.14 5627.07C3279.92 5649.95 3288.37 5671.95 3303.32 5691.82C3321.09 5715.43 3350.64 5731.18 3384.37 5735.03C3389.69 5735.63 3395.01 5735.94 3400.3 5735.94C3429.76 5735.94 3458.23 5726.58 3481.79 5708.92C3526.17 5675.64 3531.98 5634.23 3532.47 5590.86C3557.76 5593.52 3587.35 5603.02 3618.87 5639.95V5639.93Z" fill="white"/>
</svg>